<svg id="Capa_4" data-name="Capa 4" xmlns="http://www.w3.org/2000/svg" viewBox="0 0 248.72 244.2"><defs><style>.cls-1{fill:#0e4159;}</style></defs><title>LOGO LOGO</title><path class="cls-1" d="M175.1,633.63c3.15,1.7,6.23,3.5,9.31,5.29l4.58,2.74a25,25,0,0,1,4.4,3l.24.22a2.48,2.48,0,0,1-.33,3.84c-1.37.9-2.69,1.87-4,2.8l-4,2.82-8,5.64.93-2.85c3,8.64,6.15,17.28,9.43,25.85s6.69,17.09,10.29,25.52,7.38,16.77,11.53,24.89c1,2,2.07,4,3.22,6a18.14,18.14,0,0,1,1.47,3.08c.43,1.07.92,2.09,1.38,3.14a88.07,88.07,0,0,0,6.47,12.15,63.22,63.22,0,0,1-9.69-10.19c-.71-.93-1.46-1.85-2.14-2.8a16.67,16.67,0,0,1-1.93-2.93c-.51-1.05-1.08-2.06-1.63-3.09l-1.61-3.09c-4.22-8.28-8-16.71-11.67-25.21s-7.06-17.08-10.36-25.69-6.47-17.28-9.5-26a2.49,2.49,0,0,1,.92-2.84h0l8-5.64,4-2.82c1.33-.95,2.69-1.87,4-2.84l-.1,4.05a25,25,0,0,1-4-3.52l-3.79-3.76C180,638.79,177.53,636.26,175.1,633.63Z" transform="translate(-173.28 -564.22)"/><path class="cls-1" d="M395.56,564.22c-.24,5.5-.73,11-1.31,16.47s-1.38,10.94-2.2,16.39q-2.58,16.35-6.33,32.51a533.42,533.42,0,0,1-21,62.79A523.38,523.38,0,0,1,336,752.06a505.5,505.5,0,0,1-36.34,55.37,2.5,2.5,0,0,1-3.5.49,2.47,2.47,0,0,1-.48-.49,505.08,505.08,0,0,1-36.35-55.37,527.93,527.93,0,0,1-49.74-122.48c-2.46-10.77-4.62-21.61-6.34-32.5a318.84,318.84,0,0,1-3.58-32.86c.73,5.46,1.69,10.87,2.76,16.25s2.22,10.75,3.46,16.09q3.78,16,8.54,31.74a523.5,523.5,0,0,0,49.25,121.3,500.67,500.67,0,0,0,36,54.81h-4a499.05,499.05,0,0,0,36-54.81,515.78,515.78,0,0,0,28.41-59.1,515.72,515.72,0,0,0,20.76-62.21q4.74-15.7,8.5-31.73c1.24-5.34,2.41-10.7,3.46-16.09S394.84,569.67,395.56,564.22Z" transform="translate(-173.28 -564.22)"/><path class="cls-1" d="M357.56,567.43c-3.85.64-7.71,1.19-11.56,1.73l-5.79.75-2.89.37a20.16,20.16,0,0,1-2.9.26l2-1.07c-3,3.91-5.77,7.88-8.72,11.77s-5.9,7.77-8.92,11.62-6.1,7.64-9.28,11.38a132.57,132.57,0,0,1-10.15,10.88,2.51,2.51,0,0,1-3.39,0,129.54,129.54,0,0,1-10.16-10.89q-4.79-5.61-9.31-11.38t-8.94-11.61l-8.74-11.77,2,1.07a25.71,25.71,0,0,1-2.89-.29l-2.89-.37-5.79-.76-5.78-.81-5.78-.88,5.81-.61,5.82-.53,5.81-.48,2.91-.23a23.58,23.58,0,0,1,2.9-.15h.13A2.48,2.48,0,0,1,263,566.5c2.74,4,5.69,7.84,8.59,11.73s5.87,7.72,8.87,11.53,6.05,7.56,9.18,11.22a126.45,126.45,0,0,0,9.75,10.46H296A126.1,126.1,0,0,0,305.72,601q4.68-5.5,9.16-11.23t8.85-11.52l4.33-5.84c1.42-2,2.9-3.89,4.22-5.9a2.3,2.3,0,0,1,1.81-1.06l.21,0a20.25,20.25,0,0,1,2.91.13l2.9.23,5.82.47C349.8,566.61,353.68,567,357.56,567.43Z" transform="translate(-173.28 -564.22)"/><path class="cls-1" d="M420.18,633.63c-2.43,2.63-4.94,5.16-7.44,7.7L409,645.09a25.47,25.47,0,0,1-4,3.52l-.09-4.05c1.31,1,2.67,1.89,4,2.84l4,2.82,8,5.64h0a2.48,2.48,0,0,1,.92,2.85c-3,8.75-6.19,17.4-9.49,26s-6.74,17.19-10.36,25.69-7.45,16.93-11.68,25.21l-1.6,3.09c-.55,1-1.13,2-1.63,3.09a16.67,16.67,0,0,1-1.93,2.93c-.68,1-1.43,1.87-2.14,2.8a63.66,63.66,0,0,1-9.69,10.19,89.16,89.16,0,0,0,6.47-12.15c.46-1.05.95-2.07,1.38-3.14a18.14,18.14,0,0,1,1.47-3.08c1.15-2,2.17-4,3.22-6,4.15-8.12,7.92-16.47,11.53-24.89s7-17,10.29-25.52,6.45-17.21,9.43-25.85l.93,2.85-8-5.64-4-2.82c-1.35-.93-2.67-1.9-4-2.8a2.47,2.47,0,0,1-.69-3.41,2.06,2.06,0,0,1,.35-.42l.24-.23a25,25,0,0,1,4.41-3l4.58-2.74C414,637.13,417,635.33,420.18,633.63Z" transform="translate(-173.28 -564.22)"/></svg>