<svg id="Capa_3" data-name="Capa 3" xmlns="http://www.w3.org/2000/svg" viewBox="0 0 924.76 229.21"><defs><style>.cls-1{fill:#0e4159;}</style></defs><title>LOGO LETRA</title><path class="cls-1" d="M746,334.12c-.54-15-1.07-29.72-1.61-44.64H760c-.3,16.94-.8,33.82-.81,50.7s.45,33.89.71,51.25H744.33c.53-16.57,1-33.11,1.58-49.95h-60.1c.66,16.81,1.31,33.21,2,50h-16.5c2.43-33.87,3.14-67.63-.12-102.07h16.22c-.36,13.58-.62,26.82-1.14,40-.15,3.83.87,5.25,5,5.2,16.49-.2,33-.06,49.48-.07C742.13,334.54,743.58,334.32,746,334.12Z" transform="translate(164.74 -266.35)"/><path class="cls-1" d="M-99.2,286.92c-7.5-7.9-14.86-13-24.56-13.91-9.14-.85-18.29,3.67-21.83,11.05-3.7,7.71-2.13,16.42,5.37,23.05,7.08,6.26,15,11.54,22.47,17.4,5.23,4.11,10.51,8.2,15.32,12.78,9.82,9.35,12.83,20.85,8.8,33.79-4.17,13.4-14.44,20-27.51,22.48-13.88,2.67-27.13,0-39.85-5.91-2.54-1.18-3.92-2.55-3.73-5.6.27-4.42.07-8.87.07-14.32,3.07,3.39,5.3,6.2,7.89,8.63,9.35,8.8,20,13.71,33.19,10.36,16.51-4.21,22.64-22.73,11.14-35.27-5.68-6.19-12.86-11-19.41-16.38-6.95-5.69-14.56-10.71-20.81-17.06-11.16-11.36-11.73-27.83-2.33-39.62,5.77-7.25,13.83-10.27,22.59-11.49,10.22-1.42,20.28,0,30.06,3.13,1.25.39,2.88,2,3,3.15C-99,277.26-99.2,281.39-99.2,286.92Z" transform="translate(164.74 -266.35)"/><path class="cls-1" d="M22.15,391.68H4.39L-29,308.9l-1.53-.2c-6.26,16.51-12.52,33-18.84,49.71L-62,391.54h-13.6c16.09-35.93,32.1-71.72,48.72-108.85Z" transform="translate(164.74 -266.35)"/><path class="cls-1" d="M641.74,308.92c-3.2-2.77-6.07-5.51-9.21-7.91-19.84-15.13-55.45-10.87-64.81,22.08-5.63,19.83-2.93,38.16,12.52,52.92,16.26,15.52,42.87,14.78,58.75-1.12,1.48-1.48,2.48-3.43,4.18-4.7,0,10.95-4.83,17.44-15.1,20.95-23.62,8.08-53.92,1-67.56-17-13-17.23-14.16-36.34-6.43-55.8,7.95-20,24.31-29.28,45-31.41A90.4,90.4,0,0,1,638,291.19c2.58.88,3.9,2,3.79,4.89C641.63,300.22,641.74,304.37,641.74,308.92Z" transform="translate(164.74 -266.35)"/><path class="cls-1" d="M175.05,370.55,204.4,289l10.17-.86-42.22,108-1.79.22-47.07-108c4.85,0,9.62-.26,14.33.17,1.19.11,2.58,2.24,3.21,3.73,7.85,18.53,15.57,37.12,23.33,55.69q4.69,11.22,9.44,22.42Z" transform="translate(164.74 -266.35)"/><path class="cls-1" d="M100.11,288.84l10.07-.7Q89,342.49,68,396.39l-1.72,0c-15.46-35.79-30.92-71.57-46.52-107.66,5,0,10.21-.3,15.32.23,1.16.12,2.25,3,3,4.79Q52.52,329,66.9,364.44a18.35,18.35,0,0,0,3.74,6.16C80.42,343.49,90.19,316.38,100.11,288.84Z" transform="translate(164.74 -266.35)"/><path class="cls-1" d="M483.78,342.41V385c14.76,0,29.32,2.27,43.86-5.94-1.06,4.22-1.69,7.4-2.73,10.44a3.83,3.83,0,0,1-2.75,2.13c-18.28.13-36.56.09-54,.09,2.06-34.23,2.87-68,0-102.2h53.57c-.14,3.2-.28,6.28-.45,9.9-12.21-5.93-24.77-3.13-37.44-4.11V335h32.88v7.43Z" transform="translate(164.74 -266.35)"/><path class="cls-1" d="M221.64,289c5.59,0,10.57-.25,15.48.15,1.53.12,3.39,1.74,4.29,3.17,7.65,12.29,15.1,24.7,22.64,37.06,1.29,2.11,2.67,4.16,4.48,7,5.13-8.34,10.1-16.08,14.71-24,4-6.9,7.52-14.07,11.41-21a4.24,4.24,0,0,1,3-1.85c3.78-.22,7.57-.09,10.62-.09-10.18,15.21-20.51,30.84-31.08,46.3a25.44,25.44,0,0,0-4.83,16.28c.62,13.1.74,26.21,1.08,39.64H257.78c.4-14.31.85-28.52,1.13-42.73a10.62,10.62,0,0,0-1.26-5.65q-14.35-22.53-29-44.84C226.64,295.3,224.29,292.5,221.64,289Z" transform="translate(164.74 -266.35)"/><path class="cls-1" d="M440.7,289.34c.2,3.8.36,6.92.47,8.86l-31.42-3.3v96.49H394.12V295.8c-10.5-.19-21.5-.63-32.07,3.76-.14-.26-.45-.55-.41-.79,1.45-9.49,1.45-9.39,11.19-9.37,20.64,0,41.28,0,61.92,0Z" transform="translate(164.74 -266.35)"/><path class="cls-1" d="M158.38,494.47H150c.34-7,.68-13.91,1-21.24h-24.6v21.08h-8.18V449.65h8.2v19.93h23.63V449.86h8.29Z" transform="translate(164.74 -266.35)"/><path class="cls-1" d="M212.75,495.56c-15-.08-24.8-9.42-24.73-23.47s10.72-23.82,25.88-23.61c14.23.19,24.5,10.15,24.32,23.59C238,486.09,227.67,495.65,212.75,495.56ZM231,472c-1.07-3.8-1.7-7.8-3.32-11.35-2.86-6.24-8-9.9-15-9.7-7.24.2-12.13,4.14-14.77,10.78a26.56,26.56,0,0,0,.76,22.24c3,6.22,8.22,9,14.94,8.93C223.88,492.86,230.35,484.79,231,472Z" transform="translate(164.74 -266.35)"/><path class="cls-1" d="M352.84,469.49c-.09,1.43-.16,2.73-.23,3.91-.5.26-.82.58-1,.52-.8-.2-1.55-.62-2.35-.81-9.87-2.4-11.89-.85-12,9.13-.11,10.3-.1,10.43,10.29,9.38,3.23-.33,6.36-1.6,10.18-2.61-.33,1.7-.68,3.46-1.06,5.41H329.55v-45c7.16,0,15-.16,22.75.16,1.2.05,2.32,2.23,4.22,4.21L337.59,452v17.52Z" transform="translate(164.74 -266.35)"/><path class="cls-1" d="M442.08,485.86c1.95,1.58,3.52,3.56,5.54,4.32,3.46,1.29,7.33,2.77,10.78,2.32,2.45-.31,5.65-3.33,6.37-5.78.64-2.16-1-5.94-2.85-7.68-3-2.77-7-4.41-10.54-6.57-6.79-4.13-9.27-8.8-7.81-14.6,1.41-5.62,6.84-9.22,14.34-9.39a50,50,0,0,1,6,.37c4,.39,6.13,2.25,4.83,6.74-2.69-1.35-5.28-3.09-8.13-4-4.1-1.28-8.07-.66-10.38,3.53-1.92,3.5-.4,7.05,4.15,9.93,3,1.86,6.17,3.3,9.13,5.15,6.48,4.07,9.07,9.48,7.6,15.43-1.3,5.3-6.61,9.34-13.66,9.78a43,43,0,0,1-9.9-.84C442.84,493.78,440.75,491,442.08,485.86Z" transform="translate(164.74 -266.35)"/><path class="cls-1" d="M276.52,452.14l-15,1.23v-3.83h37.61v3.8l-14.63-1.18v42.09h-8Z" transform="translate(164.74 -266.35)"/><path class="cls-1" d="M397.27,492.39l19.62-2.92c-.19,1-.58,2.89-1,5.17H389V449.86h8.26Z" transform="translate(164.74 -266.35)"/></svg>