<svg xmlns="http://www.w3.org/2000/svg" viewBox="0 0 1215.33 229.21"><defs><style>.cls-1{fill:#0e4159;}</style></defs><title>LOGO LATERAL</title><g id="Capa_3" data-name="Capa 3"><path class="cls-1" d="M746,334.12c-.54-15-1.07-29.72-1.61-44.64H760c-.3,16.94-.8,33.82-.81,50.7s.45,33.89.71,51.25H744.33c.53-16.57,1-33.11,1.58-49.95h-60.1c.66,16.81,1.31,33.21,2,50h-16.5c2.43-33.87,3.14-67.63-.12-102.07h16.22c-.36,13.58-.62,26.82-1.14,40-.15,3.83.87,5.25,5,5.2,16.49-.2,33-.06,49.48-.07C742.13,334.54,743.58,334.32,746,334.12Z" transform="translate(455.31 -266.35)"/><path class="cls-1" d="M-99.2,286.92c-7.5-7.9-14.86-13-24.56-13.91-9.14-.85-18.29,3.67-21.83,11.05-3.7,7.71-2.13,16.42,5.37,23.05,7.08,6.26,15,11.54,22.47,17.4,5.23,4.11,10.51,8.2,15.32,12.78,9.82,9.35,12.83,20.85,8.8,33.79-4.17,13.4-14.44,20-27.51,22.48-13.88,2.67-27.13,0-39.85-5.91-2.54-1.18-3.92-2.55-3.73-5.6.27-4.42.07-8.87.07-14.32,3.07,3.39,5.3,6.2,7.89,8.63,9.35,8.8,20,13.71,33.19,10.36,16.51-4.21,22.64-22.73,11.14-35.27-5.68-6.19-12.86-11-19.41-16.38-6.95-5.69-14.56-10.71-20.81-17.06-11.16-11.36-11.73-27.83-2.33-39.62,5.77-7.25,13.83-10.27,22.59-11.49,10.22-1.42,20.28,0,30.06,3.13,1.25.39,2.88,2,3,3.15C-99,277.26-99.2,281.39-99.2,286.92Z" transform="translate(455.31 -266.35)"/><path class="cls-1" d="M22.15,391.68H4.39L-29,308.9l-1.53-.2c-6.26,16.51-12.52,33-18.84,49.71L-62,391.54h-13.6c16.09-35.93,32.1-71.72,48.72-108.85Z" transform="translate(455.31 -266.35)"/><path class="cls-1" d="M641.74,308.92c-3.2-2.77-6.07-5.51-9.21-7.91-19.84-15.13-55.45-10.87-64.81,22.08-5.63,19.83-2.93,38.16,12.52,52.92,16.26,15.52,42.87,14.78,58.75-1.12,1.48-1.48,2.48-3.43,4.18-4.7,0,10.95-4.83,17.44-15.1,20.95-23.62,8.08-53.92,1-67.56-17-13-17.23-14.16-36.34-6.43-55.8,7.95-20,24.31-29.28,45-31.41A90.4,90.4,0,0,1,638,291.19c2.58.88,3.9,2,3.79,4.89C641.63,300.22,641.74,304.37,641.74,308.92Z" transform="translate(455.31 -266.35)"/><path class="cls-1" d="M175.05,370.55,204.4,289l10.17-.86-42.22,108-1.79.22-47.07-108c4.85,0,9.62-.26,14.33.17,1.19.11,2.58,2.24,3.21,3.73,7.85,18.53,15.57,37.12,23.33,55.69q4.69,11.22,9.44,22.42Z" transform="translate(455.31 -266.35)"/><path class="cls-1" d="M100.11,288.84l10.07-.7Q89,342.49,68,396.39l-1.72,0c-15.46-35.79-30.92-71.57-46.52-107.66,5,0,10.21-.3,15.32.23,1.16.12,2.25,3,3,4.79Q52.52,329,66.9,364.44a18.35,18.35,0,0,0,3.74,6.16C80.42,343.49,90.19,316.38,100.11,288.84Z" transform="translate(455.31 -266.35)"/><path class="cls-1" d="M483.78,342.41V385c14.76,0,29.32,2.27,43.86-5.94-1.06,4.22-1.69,7.4-2.73,10.44a3.83,3.83,0,0,1-2.75,2.13c-18.28.13-36.56.09-54,.09,2.06-34.23,2.87-68,0-102.2h53.57c-.14,3.2-.28,6.28-.45,9.9-12.21-5.93-24.77-3.13-37.44-4.11V335h32.88v7.43Z" transform="translate(455.31 -266.35)"/><path class="cls-1" d="M221.64,289c5.59,0,10.57-.25,15.48.15,1.53.12,3.39,1.74,4.29,3.17,7.65,12.29,15.1,24.7,22.64,37.06,1.29,2.11,2.67,4.16,4.48,7,5.13-8.34,10.1-16.08,14.71-24,4-6.9,7.52-14.07,11.41-21a4.24,4.24,0,0,1,3-1.85c3.78-.22,7.57-.09,10.62-.09-10.18,15.21-20.51,30.84-31.08,46.3a25.44,25.44,0,0,0-4.83,16.28c.62,13.1.74,26.21,1.08,39.64H257.78c.4-14.31.85-28.52,1.13-42.73a10.62,10.62,0,0,0-1.26-5.65q-14.35-22.53-29-44.84C226.64,295.3,224.29,292.5,221.64,289Z" transform="translate(455.31 -266.35)"/><path class="cls-1" d="M440.7,289.34c.2,3.8.36,6.92.47,8.86l-31.42-3.3v96.49H394.12V295.8c-10.5-.19-21.5-.63-32.07,3.76-.14-.26-.45-.55-.41-.79,1.45-9.49,1.45-9.39,11.19-9.37,20.64,0,41.28,0,61.92,0Z" transform="translate(455.31 -266.35)"/><path class="cls-1" d="M158.38,494.47H150c.34-7,.68-13.91,1-21.24h-24.6v21.08h-8.18V449.65h8.2v19.93h23.63V449.86h8.29Z" transform="translate(455.31 -266.35)"/><path class="cls-1" d="M212.75,495.56c-15-.08-24.8-9.42-24.73-23.47s10.72-23.82,25.88-23.61c14.23.19,24.5,10.15,24.32,23.59C238,486.09,227.67,495.65,212.75,495.56ZM231,472c-1.07-3.8-1.7-7.8-3.32-11.35-2.86-6.24-8-9.9-15-9.7-7.24.2-12.13,4.14-14.77,10.78a26.56,26.56,0,0,0,.76,22.24c3,6.22,8.22,9,14.94,8.93C223.88,492.86,230.35,484.79,231,472Z" transform="translate(455.31 -266.35)"/><path class="cls-1" d="M352.84,469.49c-.09,1.43-.16,2.73-.23,3.91-.5.26-.82.58-1,.52-.8-.2-1.55-.62-2.35-.81-9.87-2.4-11.89-.85-12,9.13-.11,10.3-.1,10.43,10.29,9.38,3.23-.33,6.36-1.6,10.18-2.61-.33,1.7-.68,3.46-1.06,5.41H329.55v-45c7.16,0,15-.16,22.75.16,1.2.05,2.32,2.23,4.22,4.21L337.59,452v17.52Z" transform="translate(455.31 -266.35)"/><path class="cls-1" d="M442.08,485.86c1.95,1.58,3.52,3.56,5.54,4.32,3.46,1.29,7.33,2.77,10.78,2.32,2.45-.31,5.65-3.33,6.37-5.78.64-2.16-1-5.94-2.85-7.68-3-2.77-7-4.41-10.54-6.57-6.79-4.13-9.27-8.8-7.81-14.6,1.41-5.62,6.84-9.22,14.34-9.39a50,50,0,0,1,6,.37c4,.39,6.13,2.25,4.83,6.74-2.69-1.35-5.28-3.09-8.13-4-4.1-1.28-8.07-.66-10.38,3.53-1.92,3.5-.4,7.05,4.15,9.93,3,1.86,6.17,3.3,9.13,5.15,6.48,4.07,9.07,9.48,7.6,15.43-1.3,5.3-6.61,9.34-13.66,9.78a43,43,0,0,1-9.9-.84C442.84,493.78,440.75,491,442.08,485.86Z" transform="translate(455.31 -266.35)"/><path class="cls-1" d="M276.52,452.14l-15,1.23v-3.83h37.61v3.8l-14.63-1.18v42.09h-8Z" transform="translate(455.31 -266.35)"/><path class="cls-1" d="M397.27,492.39l19.62-2.92c-.19,1-.58,2.89-1,5.17H389V449.86h8.26Z" transform="translate(455.31 -266.35)"/></g><g id="Capa_4" data-name="Capa 4"><path class="cls-1" d="M-453.41,339.62c2.8,1.43,5.54,3,8.28,4.48l4.06,2.34a18.8,18.8,0,0,1,3.88,2.57l.28.27a2.44,2.44,0,0,1,0,3.45,2.41,2.41,0,0,1-.4.33c-1.2.79-2.36,1.64-3.54,2.46l-3.51,2.47-7,4.94.93-2.85c2.61,7.57,5.39,15.13,8.26,22.63s5.86,15,9,22.35,6.46,14.68,10.09,21.79c.91,1.77,1.81,3.55,2.82,5.26a13.57,13.57,0,0,1,1.26,2.7c.36.94.77,1.85,1.16,2.77a79.56,79.56,0,0,0,5.47,10.77,39.91,39.91,0,0,1-4.58-4.15c-1.45-1.48-2.81-3-4.11-4.65-.64-.81-1.31-1.61-1.92-2.43a13.5,13.5,0,0,1-1.72-2.56c-.44-.93-.95-1.82-1.43-2.72l-1.4-2.71c-3.71-7.26-7.05-14.66-10.24-22.11s-6.19-15-9.08-22.52-5.68-15.13-8.33-22.81a2.51,2.51,0,0,1,.92-2.85h0l7-4.94,3.52-2.48c1.17-.83,2.36-1.63,3.51-2.49l-.1,4.06a19.21,19.21,0,0,1-3.45-3.12l-3.28-3.35C-449.16,344.24-451.32,342-453.41,339.62Z" transform="translate(455.31 -266.35)"/><path class="cls-1" d="M-260.26,278.81c-.18,4.82-.58,9.63-1.06,14.44s-1.16,9.59-1.85,14.38q-2.19,14.34-5.41,28.52A466.55,466.55,0,0,1-287,391.2a458,458,0,0,1-25.15,52.33A442.3,442.3,0,0,1-344,492.07a2.49,2.49,0,0,1-3.49.49,2.28,2.28,0,0,1-.49-.49,444,444,0,0,1-31.87-48.55A457.21,457.21,0,0,1-405,391.2a461.82,461.82,0,0,1-18.43-55.05c-2.12-9.46-4-19-5.42-28.53a273.56,273.56,0,0,1-3-28.81c.66,4.77,1.54,9.51,2.5,14.22s2,9.41,3.1,14.08c2.27,9.34,4.78,18.6,7.62,27.75a459.11,459.11,0,0,0,18.23,54.46,452.3,452.3,0,0,0,24.9,51.75,437.39,437.39,0,0,0,31.49,48h-4a436.35,436.35,0,0,0,31.48-48,452.83,452.83,0,0,0,24.88-51.74,451.82,451.82,0,0,0,18.17-54.47q4.21-13.74,7.58-27.76c1.11-4.67,2.17-9.36,3.11-14.07S-260.92,283.58-260.26,278.81Z" transform="translate(455.31 -266.35)"/><path class="cls-1" d="M-293.55,281.62c-3.38.63-6.75,1.16-10.13,1.69l-5.06.74-2.54.36a18.08,18.08,0,0,1-2.53.26l2-1.07c-1.35,1.68-2.55,3.44-3.83,5.15l-3.82,5.15q-3.85,5.14-7.82,10.19t-8.14,10a115.5,115.5,0,0,1-8.92,9.56,2.49,2.49,0,0,1-3.38,0,114.18,114.18,0,0,1-8.93-9.57q-4.2-4.92-8.16-10t-7.84-10.18c-2.6-3.41-5.06-6.89-7.68-10.31l2,1.07a19.77,19.77,0,0,1-2.53-.28l-2.53-.36-5.07-.74c-3.38-.52-6.75-1-10.13-1.66,3.4-.45,6.8-.82,10.2-1.18l5.09-.49,2.55-.24a21.84,21.84,0,0,1,2.55-.17h.17a2.34,2.34,0,0,1,1.85,1.06c1.13,1.78,2.46,3.46,3.7,5.18l3.8,5.11q3.84,5.09,7.77,10.09c2.62,3.33,5.3,6.62,8,9.82a111,111,0,0,0,8.51,9.14h-3.38a112.51,112.51,0,0,0,8.5-9.13q4.09-4.81,8-9.83t7.75-10.09l3.79-5.11c1.24-1.72,2.56-3.4,3.69-5.18a2.27,2.27,0,0,1,1.8-1.06h.22a16.76,16.76,0,0,1,2.55.13l2.55.25,5.09.49C-300.35,280.78-296.95,281.15-293.55,281.62Z" transform="translate(455.31 -266.35)"/><path class="cls-1" d="M-238.69,339.62c-2.09,2.35-4.25,4.62-6.4,6.9l-3.28,3.35a19.21,19.21,0,0,1-3.45,3.12l-.1-4.06c1.15.86,2.34,1.66,3.51,2.49l3.52,2.48,7,4.94h0a2.51,2.51,0,0,1,.92,2.85c-2.65,7.68-5.44,15.25-8.33,22.81s-5.9,15.07-9.08,22.52-6.53,14.85-10.23,22.11l-1.41,2.71c-.48.9-1,1.79-1.43,2.72a13,13,0,0,1-1.72,2.56c-.61.82-1.28,1.62-1.92,2.43-1.3,1.61-2.66,3.17-4.11,4.65a39.91,39.91,0,0,1-4.58,4.15,79.56,79.56,0,0,0,5.47-10.77c.39-.92.8-1.83,1.16-2.77a13.57,13.57,0,0,1,1.26-2.7c1-1.71,1.91-3.49,2.82-5.26,3.63-7.11,6.94-14.41,10.09-21.79s6.14-14.84,9-22.35,5.64-15.06,8.25-22.63l.93,2.85-7-4.94-3.52-2.47c-1.18-.82-2.34-1.67-3.54-2.46a2.45,2.45,0,0,1-.7-3.38,3.3,3.3,0,0,1,.32-.4l.29-.27a18.8,18.8,0,0,1,3.88-2.57l4.06-2.34C-244.23,342.58-241.49,341.05-238.69,339.62Z" transform="translate(455.31 -266.35)"/></g></svg>