<svg xmlns="http://www.w3.org/2000/svg" viewBox="0 0 924.76 542.07"><defs><style>.cls-1{fill:#fff;}</style></defs><title>LOGO DEBAJO BLANCO</title><g id="Capa_3" data-name="Capa 3"><path class="cls-1" d="M746,334.12c-.54-15-1.07-29.72-1.61-44.64H760c-.3,16.94-.8,33.82-.81,50.7s.45,33.89.71,51.25H744.33c.53-16.57,1-33.11,1.58-49.95h-60.1c.66,16.81,1.31,33.21,2,50h-16.5c2.43-33.87,3.14-67.63-.12-102.07h16.22c-.36,13.58-.62,26.82-1.14,40-.15,3.83.87,5.25,5,5.2,16.49-.2,33-.06,49.48-.07C742.13,334.54,743.58,334.32,746,334.12Z" transform="translate(164.74 -266.35)"/><path class="cls-1" d="M-99.2,286.92c-7.5-7.9-14.86-13-24.56-13.91-9.14-.85-18.29,3.67-21.83,11.05-3.7,7.71-2.13,16.42,5.37,23.05,7.08,6.26,15,11.54,22.47,17.4,5.23,4.11,10.51,8.2,15.32,12.78,9.82,9.35,12.83,20.85,8.8,33.79-4.17,13.4-14.44,20-27.51,22.48-13.88,2.67-27.13,0-39.85-5.91-2.54-1.18-3.92-2.55-3.73-5.6.27-4.42.07-8.87.07-14.32,3.07,3.39,5.3,6.2,7.89,8.63,9.35,8.8,20,13.71,33.19,10.36,16.51-4.21,22.64-22.73,11.14-35.27-5.68-6.19-12.86-11-19.41-16.38-6.95-5.69-14.56-10.71-20.81-17.06-11.16-11.36-11.73-27.83-2.33-39.62,5.77-7.25,13.83-10.27,22.59-11.49,10.22-1.42,20.28,0,30.06,3.13,1.25.39,2.88,2,3,3.15C-99,277.26-99.2,281.39-99.2,286.92Z" transform="translate(164.74 -266.35)"/><path class="cls-1" d="M22.15,391.68H4.39L-29,308.9l-1.53-.2c-6.26,16.51-12.52,33-18.84,49.71L-62,391.54h-13.6c16.09-35.93,32.1-71.72,48.72-108.85Z" transform="translate(164.74 -266.35)"/><path class="cls-1" d="M641.74,308.92c-3.2-2.77-6.07-5.51-9.21-7.91-19.84-15.13-55.45-10.87-64.81,22.08-5.63,19.83-2.93,38.16,12.52,52.92,16.26,15.52,42.87,14.78,58.75-1.12,1.48-1.48,2.48-3.43,4.18-4.7,0,10.95-4.83,17.44-15.1,20.95-23.62,8.08-53.92,1-67.56-17-13-17.23-14.16-36.34-6.43-55.8,7.95-20,24.31-29.28,45-31.41A90.4,90.4,0,0,1,638,291.19c2.58.88,3.9,2,3.79,4.89C641.63,300.22,641.74,304.37,641.74,308.92Z" transform="translate(164.74 -266.35)"/><path class="cls-1" d="M175.05,370.55,204.4,289l10.17-.86-42.22,108-1.79.22-47.07-108c4.85,0,9.62-.26,14.33.17,1.19.11,2.58,2.24,3.21,3.73,7.85,18.53,15.57,37.12,23.33,55.69q4.69,11.22,9.44,22.42Z" transform="translate(164.74 -266.35)"/><path class="cls-1" d="M100.11,288.84l10.07-.7Q89,342.49,68,396.39l-1.72,0c-15.46-35.79-30.92-71.57-46.52-107.66,5,0,10.21-.3,15.32.23,1.16.12,2.25,3,3,4.79Q52.52,329,66.9,364.44a18.35,18.35,0,0,0,3.74,6.16C80.42,343.49,90.19,316.38,100.11,288.84Z" transform="translate(164.74 -266.35)"/><path class="cls-1" d="M483.78,342.41V385c14.76,0,29.32,2.27,43.86-5.94-1.06,4.22-1.69,7.4-2.73,10.44a3.83,3.83,0,0,1-2.75,2.13c-18.28.13-36.56.09-54,.09,2.06-34.23,2.87-68,0-102.2h53.57c-.14,3.2-.28,6.28-.45,9.9-12.21-5.93-24.77-3.13-37.44-4.11V335h32.88v7.43Z" transform="translate(164.74 -266.35)"/><path class="cls-1" d="M221.64,289c5.59,0,10.57-.25,15.48.15,1.53.12,3.39,1.74,4.29,3.17,7.65,12.29,15.1,24.7,22.64,37.06,1.29,2.11,2.67,4.16,4.48,7,5.13-8.34,10.1-16.08,14.71-24,4-6.9,7.52-14.07,11.41-21a4.24,4.24,0,0,1,3-1.85c3.78-.22,7.57-.09,10.62-.09-10.18,15.21-20.51,30.84-31.08,46.3a25.44,25.44,0,0,0-4.83,16.28c.62,13.1.74,26.21,1.08,39.64H257.78c.4-14.31.85-28.52,1.13-42.73a10.62,10.62,0,0,0-1.26-5.65q-14.35-22.53-29-44.84C226.64,295.3,224.29,292.5,221.64,289Z" transform="translate(164.74 -266.35)"/><path class="cls-1" d="M440.7,289.34c.2,3.8.36,6.92.47,8.86l-31.42-3.3v96.49H394.12V295.8c-10.5-.19-21.5-.63-32.07,3.76-.14-.26-.45-.55-.41-.79,1.45-9.49,1.45-9.39,11.19-9.37,20.64,0,41.28,0,61.92,0Z" transform="translate(164.74 -266.35)"/><path class="cls-1" d="M158.38,494.47H150c.34-7,.68-13.91,1-21.24h-24.6v21.08h-8.18V449.65h8.2v19.93h23.63V449.86h8.29Z" transform="translate(164.74 -266.35)"/><path class="cls-1" d="M212.75,495.56c-15-.08-24.8-9.42-24.73-23.47s10.72-23.82,25.88-23.61c14.23.19,24.5,10.15,24.32,23.59C238,486.09,227.67,495.65,212.75,495.56ZM231,472c-1.07-3.8-1.7-7.8-3.32-11.35-2.86-6.24-8-9.9-15-9.7-7.24.2-12.13,4.14-14.77,10.78a26.56,26.56,0,0,0,.76,22.24c3,6.22,8.22,9,14.94,8.93C223.88,492.86,230.35,484.79,231,472Z" transform="translate(164.74 -266.35)"/><path class="cls-1" d="M352.84,469.49c-.09,1.43-.16,2.73-.23,3.91-.5.26-.82.58-1,.52-.8-.2-1.55-.62-2.35-.81-9.87-2.4-11.89-.85-12,9.13-.11,10.3-.1,10.43,10.29,9.38,3.23-.33,6.36-1.6,10.18-2.61-.33,1.7-.68,3.46-1.06,5.41H329.55v-45c7.16,0,15-.16,22.75.16,1.2.05,2.32,2.23,4.22,4.21L337.59,452v17.52Z" transform="translate(164.74 -266.35)"/><path class="cls-1" d="M442.08,485.86c1.95,1.58,3.52,3.56,5.54,4.32,3.46,1.29,7.33,2.77,10.78,2.32,2.45-.31,5.65-3.33,6.37-5.78.64-2.16-1-5.94-2.85-7.68-3-2.77-7-4.41-10.54-6.57-6.79-4.13-9.27-8.8-7.81-14.6,1.41-5.62,6.84-9.22,14.34-9.39a50,50,0,0,1,6,.37c4,.39,6.13,2.25,4.83,6.74-2.69-1.35-5.28-3.09-8.13-4-4.1-1.28-8.07-.66-10.38,3.53-1.92,3.5-.4,7.05,4.15,9.93,3,1.86,6.17,3.3,9.13,5.15,6.48,4.07,9.07,9.48,7.6,15.43-1.3,5.3-6.61,9.34-13.66,9.78a43,43,0,0,1-9.9-.84C442.84,493.78,440.75,491,442.08,485.86Z" transform="translate(164.74 -266.35)"/><path class="cls-1" d="M276.52,452.14l-15,1.23v-3.83h37.61v3.8l-14.63-1.18v42.09h-8Z" transform="translate(164.74 -266.35)"/><path class="cls-1" d="M397.27,492.39l19.62-2.92c-.19,1-.58,2.89-1,5.17H389V449.86h8.26Z" transform="translate(164.74 -266.35)"/></g><g id="Capa_4" data-name="Capa 4"><path class="cls-1" d="M175.1,633.63c3.15,1.7,6.23,3.5,9.31,5.29l4.58,2.74a25,25,0,0,1,4.4,3l.24.22a2.48,2.48,0,0,1-.33,3.84c-1.37.9-2.69,1.87-4,2.8l-4,2.82-8,5.64.93-2.85c3,8.64,6.15,17.28,9.43,25.85s6.69,17.09,10.29,25.52,7.38,16.77,11.53,24.89c1,2,2.07,4,3.22,6a18.14,18.14,0,0,1,1.47,3.08c.43,1.07.92,2.09,1.38,3.14a88.07,88.07,0,0,0,6.47,12.15,63.22,63.22,0,0,1-9.69-10.19c-.71-.93-1.46-1.85-2.14-2.8a16.67,16.67,0,0,1-1.93-2.93c-.51-1.05-1.08-2.06-1.63-3.09l-1.61-3.09c-4.22-8.28-8-16.71-11.67-25.21s-7.06-17.08-10.36-25.69-6.47-17.28-9.5-26a2.49,2.49,0,0,1,.92-2.84h0l8-5.64,4-2.82c1.33-.95,2.69-1.87,4-2.84l-.1,4.05a25,25,0,0,1-4-3.52l-3.79-3.76C180,638.79,177.53,636.26,175.1,633.63Z" transform="translate(164.74 -266.35)"/><path class="cls-1" d="M395.56,564.22c-.24,5.5-.73,11-1.31,16.47s-1.38,10.94-2.2,16.39q-2.58,16.35-6.33,32.51a533.42,533.42,0,0,1-21,62.79A523.38,523.38,0,0,1,336,752.06a505.5,505.5,0,0,1-36.34,55.37,2.5,2.5,0,0,1-3.5.49,2.47,2.47,0,0,1-.48-.49,505.08,505.08,0,0,1-36.35-55.37,527.93,527.93,0,0,1-49.74-122.48c-2.46-10.77-4.62-21.61-6.34-32.5a318.84,318.84,0,0,1-3.58-32.86c.73,5.46,1.69,10.87,2.76,16.25s2.22,10.75,3.46,16.09q3.78,16,8.54,31.74a523.5,523.5,0,0,0,49.25,121.3,500.67,500.67,0,0,0,36,54.81h-4a499.05,499.05,0,0,0,36-54.81,515.78,515.78,0,0,0,28.41-59.1,515.72,515.72,0,0,0,20.76-62.21q4.74-15.7,8.5-31.73c1.24-5.34,2.41-10.7,3.46-16.09S394.84,569.67,395.56,564.22Z" transform="translate(164.74 -266.35)"/><path class="cls-1" d="M357.56,567.43c-3.85.64-7.71,1.19-11.56,1.73l-5.79.75-2.89.37a20.16,20.16,0,0,1-2.9.26l2-1.07c-3,3.91-5.77,7.88-8.72,11.77s-5.9,7.77-8.92,11.62-6.1,7.64-9.28,11.38a132.57,132.57,0,0,1-10.15,10.88,2.51,2.51,0,0,1-3.39,0,129.54,129.54,0,0,1-10.16-10.89q-4.79-5.61-9.31-11.38t-8.94-11.61l-8.74-11.77,2,1.07a25.71,25.71,0,0,1-2.89-.29l-2.89-.37-5.79-.76-5.78-.81-5.78-.88,5.81-.61,5.82-.53,5.81-.48,2.91-.23a23.58,23.58,0,0,1,2.9-.15h.13A2.48,2.48,0,0,1,263,566.5c2.74,4,5.69,7.84,8.59,11.73s5.87,7.72,8.87,11.53,6.05,7.56,9.18,11.22a126.45,126.45,0,0,0,9.75,10.46H296A126.1,126.1,0,0,0,305.72,601q4.68-5.5,9.16-11.23t8.85-11.52l4.33-5.84c1.42-2,2.9-3.89,4.22-5.9a2.3,2.3,0,0,1,1.81-1.06l.21,0a20.25,20.25,0,0,1,2.91.13l2.9.23,5.82.47C349.8,566.61,353.68,567,357.56,567.43Z" transform="translate(164.74 -266.35)"/><path class="cls-1" d="M420.18,633.63c-2.43,2.63-4.94,5.16-7.44,7.7L409,645.09a25.47,25.47,0,0,1-4,3.52l-.09-4.05c1.31,1,2.67,1.89,4,2.84l4,2.82,8,5.64h0a2.48,2.48,0,0,1,.92,2.85c-3,8.75-6.19,17.4-9.49,26s-6.74,17.19-10.36,25.69-7.45,16.93-11.68,25.21l-1.6,3.09c-.55,1-1.13,2-1.63,3.09a16.67,16.67,0,0,1-1.93,2.93c-.68,1-1.43,1.87-2.14,2.8a63.66,63.66,0,0,1-9.69,10.19,89.16,89.16,0,0,0,6.47-12.15c.46-1.05.95-2.07,1.38-3.14a18.14,18.14,0,0,1,1.47-3.08c1.15-2,2.17-4,3.22-6,4.15-8.12,7.92-16.47,11.53-24.89s7-17,10.29-25.52,6.45-17.21,9.43-25.85l.93,2.85-8-5.64-4-2.82c-1.35-.93-2.67-1.9-4-2.8a2.47,2.47,0,0,1-.69-3.41,2.06,2.06,0,0,1,.35-.42l.24-.23a25,25,0,0,1,4.41-3l4.58-2.74C414,637.13,417,635.33,420.18,633.63Z" transform="translate(164.74 -266.35)"/></g></svg>